<?xml version="1.0" encoding="utf-8"?>
<!-- Generator: Adobe Illustrator 23.0.3, SVG Export Plug-In . SVG Version: 6.00 Build 0)  -->
<svg version="1.1" id="Layer_1" xmlns="http://www.w3.org/2000/svg" xmlns:xlink="http://www.w3.org/1999/xlink" x="0px" y="0px"
	 width="90px" height="32px" viewBox="0 0 90 32" style="enable-background:new 0 0 90 32;" xml:space="preserve">
<style type="text/css">
	.st0{fill:#F6921E;}
	.st1{fill-rule:evenodd;clip-rule:evenodd;fill:#FFFFFF;}
	.st2{fill:#929497;}
	.st3{fill:#6D6E70;}
</style>
<g>
	<g>
		<path class="st0" d="M79.1,7.5c-0.7,2.9-7.6,8.8-7.6,8.8S68,8,68.7,5.1c0.7-2.9,3.5-4.6,6.4-4C77.9,1.8,79.7,4.7,79.1,7.5"/>
		<path class="st1" d="M76.8,6.1c-0.2,0.1-0.4-0.1-0.6,0c-0.1,0.7-0.3,1.4-0.4,2c-0.1,0.5-0.3,0.7-0.7,0.6c-0.1,0-1.6-0.3-1.7-0.4
			c-0.5-0.1-1-0.2-1.5-0.3c-0.4-0.1-0.5-0.3-0.4-0.8c0.1-0.7,0.3-1.3,0.4-2c-0.2-0.2-0.4-0.1-0.6-0.3c0-0.2,0.1-0.2,0.2-0.2
			c0.8-0.5,1.7-0.9,2.5-1.4c0.3-0.2,0.6-0.1,0.8,0.1c0.6,0.8,1.2,1.6,1.8,2.4C76.8,5.9,76.8,5.9,76.8,6.1"/>
		<path class="st2" d="M6.9,19.5v2.4h-2v4.5c0,0.9,0,1.5,0.1,1.6c0,0.2,0.1,0.3,0.3,0.4c0.1,0.1,0.3,0.1,0.5,0.1
			c0.3,0,0.7-0.1,1.2-0.3l0.3,2.3C6.5,30.9,5.7,31,4.8,31c-0.5,0-1-0.1-1.5-0.3c-0.4-0.2-0.7-0.4-0.9-0.7c-0.2-0.3-0.3-0.7-0.4-1.2
			c-0.1-0.3-0.1-1-0.1-2.1v-4.9H0.5v-2.4h1.4v-4h3v4H6.9z"/>
		<path class="st2" d="M16.4,30.7v-1.7c-0.4,0.6-0.9,1.1-1.6,1.4c-0.7,0.3-1.4,0.5-2.1,0.5c-0.8,0-1.4-0.2-2-0.5
			c-0.6-0.3-1-0.8-1.3-1.4c-0.3-0.6-0.4-1.4-0.4-2.5v-7.1h3v5.2c0,1.6,0.1,2.6,0.2,2.9c0.1,0.4,0.3,0.6,0.6,0.8
			c0.3,0.2,0.7,0.3,1.1,0.3c0.5,0,1-0.1,1.4-0.4c0.4-0.3,0.7-0.6,0.8-1c0.1-0.4,0.2-1.4,0.2-3v-4.8h3v11.3H16.4z"/>
		<path class="st3" d="M32.1,22.8l-2.9,0.5c-0.1-0.6-0.3-1-0.7-1.3c-0.3-0.3-0.8-0.4-1.4-0.4c-0.7,0-1.3,0.3-1.8,0.8
			c-0.4,0.5-0.7,1.4-0.7,2.6c0,1.3,0.2,2.3,0.7,2.8c0.4,0.6,1.1,0.8,1.8,0.8c0.6,0,1-0.2,1.4-0.5c0.4-0.3,0.6-0.9,0.8-1.7l2.9,0.5
			c-0.3,1.3-0.9,2.4-1.8,3c-0.9,0.7-2,1-3.5,1c-1.6,0-3-0.5-3.9-1.6c-1-1-1.5-2.5-1.5-4.3c0-1.9,0.5-3.3,1.5-4.3c1-1,2.3-1.6,4-1.6
			c1.4,0,2.5,0.3,3.3,0.9C31.2,20.7,31.7,21.6,32.1,22.8"/>
		<path class="st3" d="M36.2,22.9l-2.7-0.5c0.3-1.1,0.8-1.9,1.6-2.4c0.7-0.5,1.8-0.8,3.3-0.8c1.3,0,2.3,0.2,3,0.5
			c0.7,0.3,1.1,0.7,1.4,1.2c0.3,0.5,0.4,1.4,0.4,2.7l0,3.5c0,1,0,1.7,0.1,2.2c0.1,0.5,0.3,1,0.5,1.5h-2.9c-0.1-0.2-0.2-0.5-0.3-0.9
			c-0.1-0.2-0.1-0.3-0.1-0.4c-0.5,0.5-1.1,0.9-1.6,1.1c-0.6,0.2-1.2,0.4-1.9,0.4c-1.2,0-2.1-0.3-2.7-0.9c-0.7-0.6-1-1.4-1-2.4
			c0-0.6,0.2-1.2,0.5-1.7c0.3-0.5,0.7-0.9,1.3-1.1c0.5-0.3,1.3-0.5,2.4-0.7c1.4-0.3,2.4-0.5,2.9-0.7v-0.3c0-0.6-0.1-1-0.4-1.2
			c-0.3-0.2-0.8-0.4-1.6-0.4c-0.5,0-0.9,0.1-1.2,0.3C36.6,22,36.4,22.4,36.2,22.9 M40.2,25.3c-0.4,0.1-1,0.3-1.8,0.5
			c-0.8,0.2-1.4,0.3-1.6,0.5c-0.4,0.3-0.6,0.6-0.6,1c0,0.4,0.2,0.8,0.5,1.1c0.3,0.3,0.7,0.5,1.2,0.5c0.5,0,1.1-0.2,1.5-0.5
			c0.4-0.3,0.6-0.6,0.7-1c0.1-0.3,0.1-0.7,0.1-1.5V25.3z"/>
		<path class="st3" d="M56.3,30.7h-3V25c0-1.2-0.1-2-0.2-2.4c-0.1-0.4-0.3-0.6-0.6-0.8c-0.3-0.2-0.6-0.3-1-0.3c-0.5,0-1,0.1-1.4,0.4
			c-0.4,0.3-0.7,0.7-0.8,1.1c-0.2,0.5-0.2,1.3-0.2,2.6v5.1h-3V19.5h2.8v1.7c1-1.3,2.2-1.9,3.7-1.9c0.7,0,1.3,0.1,1.8,0.4
			c0.5,0.2,1,0.5,1.2,0.9c0.3,0.4,0.5,0.8,0.6,1.3c0.1,0.5,0.2,1.1,0.2,2V30.7z"/>
		<path class="st3" d="M64.1,19.5v2.4h-2v4.5c0,0.9,0,1.5,0.1,1.6c0,0.2,0.1,0.3,0.3,0.4c0.1,0.1,0.3,0.1,0.5,0.1
			c0.3,0,0.7-0.1,1.2-0.3l0.3,2.3C63.7,30.9,62.9,31,62,31c-0.5,0-1-0.1-1.5-0.3c-0.4-0.2-0.7-0.4-0.9-0.7c-0.2-0.3-0.3-0.7-0.4-1.2
			c-0.1-0.3-0.1-1-0.1-2.1v-4.9h-1.4v-2.4h1.4v-4h3v4H64.1z"/>
		<path class="st3" d="M65.5,25c0-1,0.2-1.9,0.7-2.9c0.5-0.9,1.2-1.6,2.1-2.1c0.9-0.5,1.9-0.7,3-0.7c1.7,0,3.1,0.6,4.2,1.7
			c1.1,1.1,1.6,2.5,1.6,4.2c0,1.7-0.5,3.1-1.6,4.2C74.4,30.4,73,31,71.3,31c-1,0-2-0.2-3-0.7c-0.9-0.5-1.6-1.2-2.1-2.1
			C65.7,27.3,65.5,26.2,65.5,25 M68.5,25.1c0,1.1,0.3,2,0.8,2.6c0.5,0.6,1.2,0.9,2,0.9c0.8,0,1.4-0.3,2-0.9c0.5-0.6,0.8-1.5,0.8-2.6
			c0-1.1-0.3-2-0.8-2.5c-0.5-0.6-1.2-0.9-2-0.9c-0.8,0-1.4,0.3-2,0.9C68.8,23.1,68.5,24,68.5,25.1"/>
		<polygon class="st3" points="89.5,30.7 86.5,30.7 86.5,24.1 84.3,22.5 82.2,24.2 82.2,30.7 79.2,30.7 79.2,19.5 82,19.5 82,21.1 
			84.5,19.4 89.5,23.2 		"/>
	</g>
</g>
</svg>
